<svg width="90" height="90" viewBox="0 0 90 90" fill="none" xmlns="http://www.w3.org/2000/svg">
<path fill-rule="evenodd" clip-rule="evenodd" d="M45 0C69.852 0 90 20.148 90 45C90 69.852 69.852 90 45 90C20.148 90 0 69.852 0 45C0 20.148 20.148 0 45 0ZM13.234 67.633C17.6285 60.0588 25.769 55.18 34.73 55.18H55.273C64.23 55.18 72.375 60.0589 76.765 67.633C95.074 41.981 76.7298 6 44.999 6C13.2682 6 -5.074 41.98 13.234 67.633ZM72.566 72.5861C69.6129 65.7502 62.8785 61.1801 55.269 61.1801H34.73C27.1206 61.1801 20.386 65.7465 17.433 72.5861C32.66 87.8051 57.339 87.8051 72.566 72.5861ZM45 19.8711C36.4844 19.8711 29.582 26.7734 29.582 35.2891C29.582 48.9801 46.215 55.8791 55.902 46.1911C65.589 36.5031 58.6911 19.8711 45 19.8711ZM51.6602 28.6328C45.7461 22.7148 35.5822 26.9258 35.5822 35.293C35.5822 43.6563 45.7422 47.871 51.6602 41.9532C55.3399 38.2735 55.3399 32.3083 51.6602 28.6328Z" fill="black"/>
</svg>
