<svg width="122" height="24" viewBox="0 0 122 24" fill="none" xmlns="http://www.w3.org/2000/svg">
<path d="M40.4448 0.373328H48.6723C60.6085 -0.618187 60.2583 15.7735 48.6723 15.1406H45.6091V23.3892H40.4448V0.373328ZM48.2504 10.9804C53.6889 11.4108 53.9801 3.84996 48.2504 4.50816H45.6091V10.9889L48.2546 10.9804H48.2504ZM47.7145 13.7398L51.284 10.4151L58.5959 23.3892H52.8156L47.7188 13.7398H47.7145Z" fill="#686868"/>
<path d="M60.6763 0.354492H74.9921V4.69606H65.8406V9.32454H73.6293V13.6661H65.8406V19.0287H75.3423V23.3703H60.6805V0.354492H60.6763Z" fill="#686868"/>
<path d="M77.4183 0.349609H83.0594C84.1732 3.42542 87.2786 11.7837 88.0802 14.8342H88.2195C89.0169 11.847 92.0463 3.37901 93.1138 0.349609H98.7549V23.3612H94.0504C93.9956 18.7159 93.9871 11.6444 94.7044 7.10035H94.5652C93.4766 10.3829 90.6919 18.0239 89.4599 21.3402H86.5909C85.3462 18.007 82.5826 10.4251 81.532 7.10879H81.3928C82.1227 11.6276 82.0974 18.7538 82.0468 23.3739H77.4141V0.349609H77.4183Z" fill="#686868"/>
<path d="M100.856 11.7727C100.104 -3.94811 122.352 -3.91857 121.601 11.7727C122.327 27.6918 100.126 27.7255 100.856 11.7727ZM116.311 11.7727C116.766 2.03896 105.691 2.03052 106.142 11.7727C105.8 21.7933 116.652 21.7807 116.311 11.7727Z" fill="#686868"/>
<path d="M3.09277 1.7153C6.74661 0.0824666 11.4173 -0.153809 14.8855 1.70686C22.0202 4.28059 29.7076 5.31429 37.2684 4.74048C33.6694 7.58845 28.927 8.19602 24.4884 7.8416C24.2648 7.8627 24.3703 8.04835 24.5433 8.09054C26.1466 8.38588 27.8553 8.41964 29.4333 8.79937C27.1761 10.0398 24.269 10.9343 22.0581 10.9596C21.5307 10.968 21.0498 10.8879 20.438 10.9174C20.8388 10.8963 20.919 11.1452 21.4379 11.3436C22.1299 11.6094 23.2311 12.1452 23.8893 11.8077C15.3749 16.1577 13.7632 0.462196 3.09277 1.7153Z" fill="#F77C00"/>
<path d="M4.10517 1.91369C9.79689 1.84196 13.6068 8.18766 17.6193 12.2465C22.1423 16.1367 25.8341 19.55 32.2853 22.9085C27.7792 23.3853 23.2731 22.0393 19.7542 19.1703L23.2267 22.1997C23.2267 22.1997 24.2561 22.9634 22.9482 22.6891C22.9482 22.6891 16.7839 21.2082 14.4844 19.5331C15.3789 20.3601 16.2481 21.4065 17.2396 22.1111C17.4126 22.2208 17.2227 22.2503 17.1383 22.2672C14.6237 22.4106 12.071 21.4487 10.3834 19.5542L11.8179 21.8748C11.8179 21.8748 12.4592 22.744 11.1513 22.4655C11.1513 22.4655 2.64532 19.8116 0.337409 11.0145C-0.531749 7.72777 0.151763 2.02761 4.10517 1.91369Z" fill="#F77C00"/>
</svg>
